<?xml version="1.0" encoding="utf-8"?>
<!-- Generator: Adobe Illustrator 25.2.1, SVG Export Plug-In . SVG Version: 6.00 Build 0)  -->
<svg version="1.1" id="Layer_1" xmlns="http://www.w3.org/2000/svg" xmlns:xlink="http://www.w3.org/1999/xlink" x="0px" y="0px"
	 viewBox="0 0 283.465 283.465" enable-background="new 0 0 283.465 283.465" xml:space="preserve">
<g>
	<path fill="#FFFFFF" d="M-243.341,118.044c-1.403,1.066-6.28,4.1-13.618,4.1c-13.279,0-22.325-8.369-22.325-21.128
		c0-12.684,9.593-21.125,22.636-21.125c5.074,0,10.885,1.563,14.127,2.954c-0.677,1.5-1.235,3.481-1.47,4.722l-0.355,0.117
		c-2.509-2.777-6.542-5.182-12.51-5.182c-7.573,0-16.291,6.133-16.291,18.362c0,11.909,8.882,18.237,16.824,18.237
		c7.134,0,10.55-3.33,13.615-5.918l0.235,0.234L-243.341,118.044z"/>
	<path fill="#FFFFFF" d="M-210.452,119.225c0-0.896,0.076-1.817,0.14-2.265c-4.026,0.37-15.083,0.706-19.395,0.767
		c-0.073-1.077-0.167-13.847-0.061-15.821c1.724,0,10.836,0.118,14.907,0.532c-0.117-0.591-0.176-1.465-0.176-2.056
		c0-0.59,0.06-1.648,0.176-2.237c-3.481,0.295-7.941,0.589-14.907,0.589c0-1.476,0.12-12.241,0.179-14.776
		c7.67,0,14.616,0.477,18.502,0.767c-0.063-0.402-0.14-1.229-0.14-2.036c0-0.805,0.053-1.458,0.14-2.014
		c-2.044,0.137-8.648,0.297-12.19,0.297c-3.54,0-9.005-0.119-12.545-0.297c0.235,5.017,0.473,10.149,0.473,15.226v10.149
		c0,5.077-0.238,10.21-0.473,15.345c3.599-0.178,9.123-0.295,12.723-0.295c0.169,0,0.346,0,0.523,0.001
		c1.233,0.005,2.795,0.022,4.406,0.05c2.793,0.051,5.737,0.136,7.858,0.245l0,0l0,0
		C-210.399,120.777-210.452,120.12-210.452,119.225z"/>
	<path fill="#FFFFFF" d="M-197.236,101.42v4.693c0,5.074,0.235,10.206,0.473,15.283c-1.005-0.178-2.82-0.196-3.192-0.196
		c-0.37,0-2.185,0.018-3.189,0.196c0.236-5.076,0.472-10.209,0.472-15.283V95.962c0-5.074-0.237-10.209-0.472-15.284
		c2.243,0.178,5.082,0.297,7.324,0.297c2.243,0,4.486-0.297,6.727-0.297c6.669,0,12.779,1.97,12.779,9.396
		c0,7.861-7.829,10.681-12.314,11.272c2.892,3.599,13.25,16.214,16.673,20.051c-1.18-0.178-3.158-0.196-3.697-0.196
		c-0.538,0-2.575,0.018-3.697,0.196c-2.332-3.557-9.803-14.753-14.881-19.978C-194.385,101.419-197.236,101.42-197.236,101.42z
		 M-193.283,99.261c4.873-0.1,11.271-1.647,11.271-8.38c0-5.866-5.134-7.731-9.147-7.731c-2.714,0-4.485,0.177-5.724,0.294
		c-0.178,4.308-0.354,8.268-0.354,12.517c0,0,0,2.819,0,3.245C-196.65,99.287-193.885,99.271-193.283,99.261z"/>
	<path fill="#FFFFFF" d="M-130.558,80.658c-0.689,0.119-1.542,0.216-2.587,0.216c-1.03,0-1.914-0.111-2.515-0.216
		c0.259,4.835,0.704,13.779,0.704,19.646c0,4.414-0.001,8.268-0.06,10.451c-2.146-2.283-26.77-27.766-29.272-30.486l-1.932-0.019
		c0.087,3.755,0.196,7.83,0.196,15.264c0,9.517-0.133,19.642-0.619,25.883c0.69-0.12,1.542-0.216,2.586-0.216
		c1.031,0,1.914,0.109,2.514,0.216c-0.258-4.833-0.703-13.781-0.703-19.645c0-4.415,0.003-8.959,0.062-11.14
		c2.146,2.285,26.908,28.112,29.271,31.316l1.933,0.019c-0.088-3.754-0.197-7.972-0.197-15.407
		C-131.178,97.022-131.043,86.896-130.558,80.658z"/>
	<path fill="#FFFFFF" d="M-237.973,186.967c-11.597-18.35-14.897-36.065-15.359-49.622c-1.786,0-3.573,0-5.359,0
		c0.449,14.79,4.036,30.299,12.062,45.497C-244.739,184.369-240.295,186.311-237.973,186.967z"/>
	<path fill="#FFFFFF" d="M-21.421,4.03c0,0-133.351-1.057-175.87-1.034c-6.654,0.005-11.121,0.474-12.563,0.565
		c-52.521,3.403-92.018,49.455-92.193,99.679c-0.049,14.6,3.841,31.055,10.154,53.266c8.341,29.345,18.11,63.005,18.11,63.005h5.329
		l-19.691-66.432l0.147-0.099c14.465,27.943,47.813,50.393,85.654,50.393c20.419,0,39.358-5.716,54.28-16.244l0.129,0.122
		l-87.602,93.218h6.841c0,0,61.512-65.443,82.436-87.663c16.034-17.025,24.363-27.996,27.849-33.688
		c3.998-6.53,16.7-25.351,16.224-53.075l0.171-0.013l38.386,174.437h5.51c0,0-32.207-142.779-38.458-172.64
		c-6.15-29.384-13.416-47.608-21.258-58.003c-2.694-1.501-6.895-3.209-8.876-3.672c11.381,14.36,19.883,35.722,19.883,57.098
		c0,52.325-42.57,94.893-94.897,94.893c-52.325,0-94.894-42.568-94.894-94.893c0-52.327,42.723-94.897,94.925-94.897
		c23.204,0,44.712,8.511,61.242,22.526c3.196,0.441,7.479,1.44,10.036,2.362l0.019-0.053
		c-11.878-11.846-26.712-20.651-43.212-25.282c0-0.128,0-0.136,0-0.136l152.19,0.949L-21.421,4.03z"/>
	<path fill="#FFFFFF" d="M-224.664,203.85c-3.393-0.501-7.632-1.703-10.181-2.796c11.424,13.001,27.142,23.403,42.574,29.24
		l4.049-4.297C-204.961,220.343-217.126,211.258-224.664,203.85"/>
	<path fill="#FFFFFF" d="M-85.056,196.253c-16.938,20.737-43.237,34.701-73.451,34.681c-6.487-0.002-12.78-0.728-18.027-1.795
		l-4.337,4.603c8.294,1.916,15.644,2.637,22.671,2.637c31.079,0,57.665-14.505,74.588-33.594L-85.056,196.253"/>
	<path fill="#FFFFFF" d="M-49.759,27.828l-9.14,94.377h-0.173c-1.296-17.814-10.178-39.091-21.145-52.542
		c-19.038-23.347-46.975-37.445-78.353-37.445c-29.924,0-56.582,13.277-74.924,34.089l4.201,3.329
		c17.327-19.595,42.15-32.153,70.719-32.153c34.782,0,63.115,17.826,78.964,42.059c14.143,21.623,18.833,49.333,15.555,69.634
		c-1.107,6.858-3.595,20.192-12.732,35.299l1.6,7.027c11.207-17.371,16.892-32.831,21.331-72.351
		c3.403-30.319,9.249-91.327,9.249-91.327L-49.759,27.828z"/>
</g>
<g>
	<path d="M-679.447,113.313c-1.403,1.066-6.28,4.1-13.618,4.1c-13.279,0-22.325-8.369-22.325-21.128
		c0-12.684,9.593-21.125,22.636-21.125c5.074,0,10.885,1.563,14.127,2.954c-0.677,1.5-1.235,3.481-1.47,4.722l-0.355,0.117
		c-2.509-2.777-6.542-5.182-12.51-5.182c-7.573,0-16.291,6.133-16.291,18.362c0,11.909,8.882,18.237,16.824,18.237
		c7.134,0,10.55-3.33,13.615-5.918l0.235,0.234L-679.447,113.313z"/>
	<path d="M-646.557,114.494c0-0.896,0.076-1.817,0.14-2.265c-4.026,0.37-15.083,0.706-19.395,0.767
		c-0.073-1.077-0.167-13.847-0.061-15.821c1.724,0,10.836,0.118,14.907,0.532c-0.117-0.591-0.176-1.465-0.176-2.056
		c0-0.59,0.06-1.648,0.176-2.237c-3.481,0.295-7.941,0.589-14.907,0.589c0-1.476,0.12-12.241,0.179-14.776
		c7.67,0,14.616,0.477,18.502,0.767c-0.063-0.402-0.14-1.229-0.14-2.036c0-0.805,0.053-1.458,0.14-2.014
		c-2.044,0.137-8.648,0.297-12.19,0.297c-3.54,0-9.005-0.119-12.545-0.297c0.235,5.017,0.473,10.149,0.473,15.226v10.149
		c0,5.077-0.238,10.21-0.473,15.345c3.599-0.178,9.123-0.295,12.723-0.295c0.169,0,0.346,0,0.523,0.001
		c1.233,0.005,2.795,0.022,4.406,0.05c2.793,0.051,5.737,0.136,7.858,0.245l0,0l0,0
		C-646.504,116.046-646.557,115.39-646.557,114.494z"/>
	<path d="M-633.342,96.69v4.693c0,5.074,0.235,10.206,0.473,15.283c-1.005-0.178-2.82-0.196-3.192-0.196
		c-0.37,0-2.185,0.018-3.189,0.196c0.236-5.076,0.472-10.209,0.472-15.283V91.231c0-5.074-0.237-10.209-0.472-15.284
		c2.243,0.178,5.082,0.297,7.324,0.297c2.243,0,4.486-0.297,6.727-0.297c6.669,0,12.779,1.97,12.779,9.396
		c0,7.861-7.829,10.681-12.314,11.272c2.892,3.599,13.25,16.214,16.673,20.051c-1.18-0.178-3.158-0.196-3.697-0.196
		c-0.538,0-2.575,0.018-3.697,0.196c-2.332-3.557-9.803-14.753-14.881-19.978C-630.49,96.688-633.342,96.69-633.342,96.69z
		 M-629.388,94.53c4.873-0.1,11.271-1.647,11.271-8.38c0-5.866-5.134-7.731-9.147-7.731c-2.714,0-4.485,0.177-5.724,0.294
		c-0.178,4.308-0.354,8.268-0.354,12.517c0,0,0,2.819,0,3.245C-632.756,94.556-629.991,94.54-629.388,94.53z"/>
	<path d="M-566.664,75.927c-0.689,0.119-1.542,0.216-2.587,0.216c-1.03,0-1.914-0.111-2.515-0.216
		c0.259,4.835,0.704,13.779,0.704,19.646c0,4.414-0.001,8.268-0.06,10.451c-2.146-2.283-26.77-27.766-29.272-30.486l-1.932-0.019
		c0.087,3.755,0.196,7.83,0.196,15.264c0,9.517-0.133,19.642-0.619,25.883c0.69-0.12,1.542-0.216,2.587-0.216
		c1.031,0,1.914,0.109,2.514,0.216c-0.258-4.833-0.703-13.781-0.703-19.645c0-4.415,0.003-8.959,0.062-11.14
		c2.146,2.285,26.908,28.112,29.271,31.316l1.933,0.019c-0.088-3.754-0.197-7.972-0.197-15.407
		C-567.283,92.291-567.149,82.165-566.664,75.927z"/>
	<path d="M-674.078,182.236c-11.597-18.35-14.897-36.065-15.359-49.622c-1.786,0-3.573,0-5.359,0
		c0.449,14.79,4.036,30.299,12.062,45.497C-680.844,179.639-676.401,181.58-674.078,182.236z"/>
	<path d="M-457.526-0.7c0,0-133.351-1.057-175.87-1.034c-6.654,0.005-11.121,0.474-12.562,0.565
		c-52.521,3.403-92.018,49.455-92.193,99.679c-0.049,14.6,3.841,31.055,10.154,53.266c8.341,29.345,18.11,63.005,18.11,63.005h5.329
		l-19.691-66.432l0.147-0.099c14.465,27.943,47.813,50.393,85.654,50.393c20.419,0,39.358-5.716,54.28-16.244l0.129,0.122
		l-87.602,93.218h6.841c0,0,61.512-65.443,82.436-87.663c16.034-17.025,24.363-27.996,27.849-33.688
		c3.998-6.53,16.7-25.351,16.224-53.075l0.171-0.013l38.386,174.437h5.51c0,0-32.207-142.779-38.458-172.64
		c-6.15-29.384-13.416-47.608-21.258-58.003c-2.694-1.501-6.895-3.209-8.876-3.672c11.381,14.36,19.883,35.722,19.883,57.098
		c0,52.325-42.57,94.893-94.897,94.893c-52.325,0-94.894-42.568-94.894-94.893c0-52.327,42.723-94.897,94.925-94.897
		c23.204,0,44.712,8.511,61.242,22.526c3.196,0.441,7.479,1.44,10.036,2.362l0.019-0.053
		c-11.878-11.846-26.712-20.651-43.212-25.282c0-0.128,0-0.136,0-0.136l152.19,0.949L-457.526-0.7z"/>
	<path d="M-660.769,199.119c-3.393-0.501-7.632-1.703-10.181-2.796c11.424,13.001,27.142,23.403,42.574,29.24l4.049-4.297
		C-641.067,215.612-653.232,206.528-660.769,199.119"/>
	<path d="M-521.162,191.522c-16.938,20.737-43.237,34.701-73.451,34.681c-6.487-0.002-12.78-0.728-18.027-1.795l-4.336,4.603
		c8.294,1.916,15.644,2.637,22.672,2.637c31.079,0,57.665-14.505,74.588-33.594L-521.162,191.522"/>
	<path d="M-485.864,23.098l-9.14,94.377h-0.173c-1.296-17.814-10.178-39.091-21.145-52.542
		c-19.039-23.347-46.975-37.445-78.353-37.445c-29.924,0-56.582,13.277-74.924,34.089l4.201,3.329
		c17.327-19.595,42.15-32.153,70.719-32.153c34.782,0,63.115,17.826,78.964,42.059c14.143,21.623,18.833,49.333,15.555,69.634
		c-1.107,6.858-3.595,20.192-12.732,35.299l1.6,7.027c11.207-17.371,16.892-32.831,21.331-72.351
		c3.403-30.319,9.249-91.327,9.249-91.327L-485.864,23.098z"/>
</g>
<g>
	<path fill="#0033A0" d="M-1036.904,111.539c-1.403,1.066-6.28,4.1-13.618,4.1c-13.279,0-22.325-8.369-22.325-21.128
		c0-12.684,9.593-21.125,22.636-21.125c5.074,0,10.885,1.563,14.127,2.954c-0.677,1.5-1.235,3.481-1.47,4.722l-0.355,0.117
		c-2.509-2.777-6.542-5.182-12.51-5.182c-7.573,0-16.291,6.133-16.291,18.362c0,11.909,8.882,18.237,16.824,18.237
		c7.134,0,10.55-3.33,13.615-5.918l0.235,0.234L-1036.904,111.539z"/>
	<path fill="#0033A0" d="M-1004.015,112.72c0-0.896,0.076-1.817,0.14-2.265c-4.026,0.37-15.083,0.706-19.395,0.767
		c-0.073-1.077-0.167-13.847-0.061-15.821c1.724,0,10.836,0.118,14.906,0.532c-0.117-0.591-0.176-1.465-0.176-2.056
		c0-0.59,0.06-1.648,0.176-2.237c-3.481,0.295-7.941,0.589-14.906,0.589c0-1.476,0.12-12.241,0.179-14.776
		c7.67,0,14.616,0.477,18.502,0.767c-0.063-0.402-0.14-1.229-0.14-2.036c0-0.805,0.053-1.458,0.14-2.014
		c-2.044,0.137-8.648,0.297-12.19,0.297c-3.54,0-9.005-0.119-12.545-0.297c0.235,5.017,0.473,10.149,0.473,15.226v10.149
		c0,5.077-0.238,10.21-0.473,15.345c3.599-0.178,9.123-0.295,12.723-0.295c0.169,0,0.346,0,0.523,0.001
		c1.233,0.005,2.795,0.022,4.406,0.05c2.793,0.051,5.737,0.136,7.858,0.245l0,0l0,0
		C-1003.962,114.272-1004.015,113.616-1004.015,112.72z"/>
	<path fill="#0033A0" d="M-990.799,94.916v4.693c0,5.074,0.235,10.206,0.473,15.283c-1.005-0.178-2.82-0.196-3.192-0.196
		c-0.37,0-2.185,0.018-3.189,0.196c0.236-5.076,0.472-10.209,0.472-15.283V89.457c0-5.074-0.237-10.209-0.472-15.284
		c2.243,0.178,5.082,0.297,7.324,0.297c2.243,0,4.486-0.297,6.727-0.297c6.669,0,12.779,1.97,12.779,9.396
		c0,7.861-7.829,10.681-12.314,11.272c2.892,3.599,13.25,16.214,16.673,20.051c-1.18-0.178-3.158-0.196-3.697-0.196
		c-0.538,0-2.575,0.018-3.697,0.196c-2.332-3.557-9.803-14.753-14.881-19.978C-987.948,94.914-990.799,94.916-990.799,94.916z
		 M-986.846,92.756c4.873-0.1,11.271-1.647,11.271-8.38c0-5.866-5.134-7.731-9.147-7.731c-2.714,0-4.485,0.177-5.724,0.294
		c-0.178,4.308-0.354,8.268-0.354,12.517c0,0,0,2.819,0,3.245C-990.213,92.782-987.448,92.766-986.846,92.756z"/>
	<path fill="#0033A0" d="M-924.121,74.153c-0.689,0.119-1.542,0.216-2.587,0.216c-1.03,0-1.914-0.111-2.515-0.216
		c0.259,4.835,0.704,13.779,0.704,19.646c0,4.414-0.001,8.268-0.06,10.451c-2.146-2.283-26.77-27.766-29.272-30.486l-1.932-0.019
		c0.087,3.755,0.196,7.83,0.196,15.264c0,9.517-0.133,19.642-0.619,25.883c0.69-0.12,1.542-0.216,2.586-0.216
		c1.031,0,1.914,0.109,2.514,0.216c-0.258-4.833-0.703-13.781-0.703-19.645c0-4.415,0.003-8.959,0.062-11.14
		c2.146,2.285,26.908,28.112,29.271,31.316l1.933,0.019c-0.088-3.754-0.197-7.972-0.197-15.407
		C-924.741,90.517-924.606,80.391-924.121,74.153z"/>
	<path fill="#0033A0" d="M-1031.536,180.462c-11.597-18.35-14.897-36.065-15.359-49.622c-1.786,0-3.573,0-5.359,0
		c0.449,14.79,4.036,30.299,12.062,45.497C-1038.302,177.865-1033.858,179.806-1031.536,180.462z"/>
	<path fill="#0033A0" d="M-814.984-2.474c0,0-133.351-1.057-175.87-1.034c-6.654,0.005-11.121,0.474-12.562,0.565
		c-52.521,3.403-92.018,49.455-92.193,99.679c-0.049,14.6,3.841,31.055,10.154,53.266c8.34,29.345,18.11,63.005,18.11,63.005h5.329
		l-19.692-66.432l0.147-0.099c14.465,27.943,47.813,50.393,85.654,50.393c20.419,0,39.358-5.716,54.28-16.244l0.129,0.122
		l-87.602,93.218h6.841c0,0,61.512-65.443,82.436-87.663c16.034-17.025,24.363-27.996,27.849-33.688
		c3.998-6.53,16.7-25.351,16.224-53.075l0.171-0.013l38.386,174.437h5.51c0,0-32.207-142.779-38.458-172.64
		c-6.15-29.384-13.416-47.608-21.258-58.003c-2.694-1.501-6.895-3.209-8.876-3.672c11.381,14.36,19.883,35.722,19.883,57.098
		c0,52.325-42.57,94.893-94.897,94.893c-52.325,0-94.894-42.568-94.894-94.893c0-52.327,42.723-94.897,94.925-94.897
		c23.204,0,44.712,8.511,61.242,22.526c3.196,0.441,7.479,1.44,10.036,2.362l0.019-0.053C-935.836,14.839-950.67,6.034-967.17,1.403
		c0-0.128,0-0.136,0-0.136l152.19,0.949L-814.984-2.474z"/>
	<path fill="#0033A0" d="M-1018.227,197.345c-3.393-0.501-7.632-1.703-10.181-2.796c11.424,13.001,27.142,23.403,42.574,29.24
		l4.049-4.297C-998.524,213.838-1010.689,204.754-1018.227,197.345"/>
	<path fill="#0033A0" d="M-878.62,189.748c-16.938,20.737-43.237,34.701-73.451,34.681c-6.487-0.002-12.78-0.728-18.027-1.795
		l-4.337,4.603c8.294,1.916,15.644,2.637,22.672,2.637c31.079,0,57.665-14.505,74.588-33.594L-878.62,189.748"/>
	<path fill="#0033A0" d="M-843.322,21.324l-9.14,94.377h-0.173c-1.296-17.814-10.177-39.091-21.145-52.542
		c-19.038-23.347-46.975-37.445-78.353-37.445c-29.924,0-56.582,13.277-74.924,34.089l4.201,3.329
		c17.327-19.595,42.15-32.153,70.719-32.153c34.782,0,63.115,17.826,78.964,42.059c14.143,21.623,18.833,49.333,15.555,69.634
		c-1.107,6.858-3.595,20.192-12.732,35.299l1.6,7.027c11.207-17.371,16.892-32.831,21.331-72.351
		c3.403-30.319,9.249-91.327,9.249-91.327L-843.322,21.324z"/>
</g>
<rect x="0.752" y="-0.337" fill="#FFFFFF" width="283.465" height="283.465"/>
<path fill="#0033A0" d="M210.282,120.915c0.429,24.998-11.023,41.967-14.629,47.856c-3.143,5.13-10.654,15.024-25.11,30.374
	c-18.235,19.365-75.231,79.947-79.029,83.983h154.558l-35.636-162.227L210.282,120.915z M224.498,203.72l1.277,5.803
	c-15.302,16.528-38.73,28.912-66,28.912c-5.841,0-11.941-0.565-18.719-2.005c1.375-1.463,2.693-2.867,3.937-4.188
	c4.352,0.773,9.361,1.284,14.506,1.286C186.023,233.541,209.198,221.605,224.498,203.72z M0.752-0.337v283.465h84.595l83.686-88.992
	l-0.117-0.107c-13.455,9.491-30.532,14.646-48.943,14.646c-34.121,0-64.191-20.244-77.232-45.437l-0.132,0.088l17.755,59.9h-4.806
	c0,0-8.809-30.352-16.33-56.812c-5.692-20.026-9.198-34.861-9.154-48.029c0.156-45.284,35.77-86.809,83.128-89.874
	c1.3-0.086,5.328-0.506,11.328-0.511c36.48-0.022,148.884,0.84,159.687,0.923v-29.26H0.752z M100.261,210.453
	c6.786,5.88,17.542,13.273,30.838,18.05c-1.113,1.185-2.321,2.469-3.603,3.833c-13.279-5.257-26.271-13.409-36.369-24.392
	C93.969,208.901,97.099,209.768,100.261,210.453z M145.883,32.427c13.977,3.923,27.086,11.109,37.504,20.825
	c-3.006-0.803-6.071-1.451-9.188-1.939c-14.647-11.578-33.714-18.482-53.64-18.482c-47.069,0-85.592,38.386-85.592,85.565
	c0,47.18,38.382,85.564,85.565,85.564c47.179,0,85.565-38.384,85.565-85.564c0-18.252-6.876-36.487-16.318-49.367
	c2.255,0.678,5.004,1.841,8.162,3.708c6.393,9.69,12.32,25.515,17.398,49.787c5.33,25.462,32.732,147.426,35.694,160.605h33.182
	V33.152l-138.333-0.85C145.883,32.303,145.883,32.311,145.883,32.427z M50.595,116.383c0-11.441,8.652-19.051,20.412-19.051
	c4.577,0,9.814,1.409,12.738,2.664c-0.611,1.353-1.113,3.142-1.326,4.258l-0.319,0.106c-2.261-2.503-5.898-4.672-11.279-4.672
	c-6.83,0-14.689,5.528-14.689,16.557c0,10.737,8.009,16.442,15.169,16.442c6.434,0,9.513-3,12.278-5.337l0.212,0.213l-0.783,4.172
	c-1.268,0.96-5.664,3.695-12.279,3.695C58.754,135.429,50.595,127.885,50.595,116.383z M78.765,187.656
	c-6.344-12.899-9.219-25.995-9.6-38.519c1.612,0,3.481,0.067,5.093,0.067c0.556,11.987,3.274,26.892,12.648,43.087
	C83.521,191.047,80.974,189.405,78.765,187.656z M112.787,134.755c0,0.001,0,0.001,0,0.001c-1.911-0.098-4.565-0.176-7.084-0.221
	c-1.451-0.024-2.861-0.041-3.973-0.044c-0.158,0-0.319,0-0.47,0c-3.247,0-8.227,0.105-11.475,0.266
	c0.214-4.631,0.429-9.26,0.429-13.836v-9.15c0-4.578-0.215-9.206-0.429-13.728c3.193,0.16,8.121,0.265,11.313,0.265
	c3.193,0,9.149-0.141,10.991-0.265c-0.078,0.498-0.127,1.089-0.127,1.815c0,0.725,0.071,1.473,0.127,1.836
	c-3.505-0.263-9.766-0.692-16.682-0.692c-0.056,2.287-0.162,11.991-0.162,13.324c6.278,0,10.301-0.269,13.441-0.532
	c-0.105,0.532-0.16,1.486-0.16,2.017c0,0.532,0.054,1.32,0.16,1.853c-3.671-0.374-11.887-0.48-13.441-0.48
	c-0.095,1.779-0.012,13.294,0.053,14.266c3.889-0.057,13.857-0.359,17.489-0.693c-0.057,0.403-0.125,1.233-0.125,2.042
	C112.661,133.608,112.708,134.198,112.787,134.755z M144.039,134.58c-0.485,0-2.321,0.017-3.334,0.177
	c-2.103-3.205-8.839-13.302-13.419-18.015c-0.137,0-2.708,0.003-2.708,0.003v4.23c0,4.575,0.212,9.205,0.426,13.781
	c-0.906-0.161-2.542-0.177-2.877-0.177c-0.335,0-1.971,0.017-2.878,0.177c0.214-4.577,0.428-9.206,0.428-13.781v-9.152
	c0-4.577-0.213-9.207-0.428-13.782c2.024,0.16,4.584,0.265,6.606,0.265c2.021,0,4.043-0.265,6.064-0.265
	c6.013,0,11.523,1.776,11.523,8.472c0,7.084-7.06,9.632-11.104,10.163c2.606,3.246,11.946,14.619,15.032,18.08
	C146.309,134.596,144.525,134.58,144.039,134.58z M184.319,135.253l-1.742-0.017c-2.13-2.888-24.461-26.18-26.395-28.237
	c-0.053,1.967-0.055,6.062-0.055,10.043c0,5.287,0.4,13.354,0.634,17.714c-0.54-0.098-1.338-0.195-2.268-0.195
	c-0.939,0-1.709,0.086-2.331,0.195c0.436-5.625,0.558-14.755,0.558-23.337c0-6.704-0.099-10.38-0.178-13.762l1.744,0.015
	c2.256,2.45,24.457,25.428,26.392,27.487c0.053-1.967,0.057-5.441,0.057-9.424c0-5.285-0.402-13.354-0.636-17.711
	c0.542,0.094,1.338,0.192,2.269,0.192c0.942,0,1.71-0.084,2.332-0.192c-0.438,5.624-0.56,14.753-0.56,23.336
	C184.14,128.063,184.239,131.868,184.319,135.253z M230.093,88.11c9.889,12.128,17.896,31.314,19.065,47.379h0.156l8.24-85.104
	l4.646-0.003c0,0-5.271,55.013-8.341,82.351c-3.844,34.241-8.729,48.448-18.071,63.403l-1.43-6.508
	c7.28-12.787,9.357-23.946,10.306-29.823c2.956-18.304-1.273-43.291-14.025-62.789c-14.291-21.849-39.84-37.924-71.2-37.924
	c-25.762,0-48.143,11.327-63.766,28.993l-3.789-3.003c16.539-18.764,40.576-30.737,67.558-30.737
	C187.735,54.346,212.924,67.058,230.093,88.11z M138.305,107.241c0-5.29-4.629-6.973-8.248-6.973c-2.448,0-4.043,0.161-5.162,0.268
	c-0.159,3.885-0.318,7.457-0.318,11.287v2.926c0.529,0.071,3.021,0.059,3.566,0.049
	C132.537,114.707,138.305,113.312,138.305,107.241z"/>
</svg>
